<svg id="Icon_awesome-arrow-down" data-name="Icon awesome-arrow-down" xmlns="http://www.w3.org/2000/svg" width="12.453" height="12.777" viewBox="0 0 12.453 12.777">
  <path id="Icon_awesome-arrow-down-2" data-name="Icon awesome-arrow-down" d="M12.017,7.682l.633.633a.682.682,0,0,1,0,.967L7.109,14.826a.682.682,0,0,1-.967,0L.6,9.282a.682.682,0,0,1,0-.967l.633-.633a.685.685,0,0,1,.978.011L5.483,11.13v-8.2a.683.683,0,0,1,.684-.684H7.08a.683.683,0,0,1,.684.684v8.2l3.274-3.436a.68.68,0,0,1,.978-.011Z" transform="translate(-0.397 -2.25)" fill="#142d40"/>
</svg>
