<svg xmlns="http://www.w3.org/2000/svg" width="37.865" height="27.863" viewBox="0 0 37.865 27.863">
  <path id="Icon" d="M1363.467,199.766a.7.7,0,0,0,.349.712l10.127,5.712.172,6.741v.01a.709.709,0,0,0,.013.115c0,.011.005.021.008.032a.7.7,0,0,0,.027.087c0,.011.008.022.013.032a.72.72,0,0,0,.053.1l0,.007a.682.682,0,0,0,.075.092l.027.026a.674.674,0,0,0,.071.058l.028.02a.7.7,0,0,0,.1.055l.007,0,.007,0a.7.7,0,0,0,.086.026c.014,0,.027.009.041.012a.7.7,0,0,0,.137.014.709.709,0,0,0,.116-.01l.033-.008a.7.7,0,0,0,.079-.022l.038-.014a.717.717,0,0,0,.073-.035l.032-.018a.736.736,0,0,0,.094-.069h0l0,0,3.509-3.123,9.155,8.211a.7.7,0,0,0,1.1-.228l12.209-26.463c0-.009.006-.018.01-.027s.013-.035.019-.052a.657.657,0,0,0,.017-.063c0-.017.007-.034.01-.051s.005-.045.006-.068,0-.034,0-.051a.691.691,0,0,0-.006-.071c0-.016,0-.032-.007-.048a.664.664,0,0,0-.023-.082c0-.01,0-.02-.008-.029l0,0a.7.7,0,0,0-.053-.109c-.006-.01-.014-.019-.02-.028a.692.692,0,0,0-.051-.068c-.013-.014-.026-.026-.04-.04s-.024-.026-.037-.037l-.009-.007c-.015-.012-.031-.023-.047-.034s-.034-.024-.052-.034a.543.543,0,0,0-.05-.024.568.568,0,0,0-.057-.025c-.018-.007-.036-.011-.054-.017l-.059-.014-.057-.008-.062,0-.055,0a.606.606,0,0,0-.071.009c-.011,0-.022,0-.033,0L1364,199.184A.7.7,0,0,0,1363.467,199.766Zm13.077,7.372c-.007,0-.012.011-.018.016a.706.706,0,0,0-.092.08c-.012.013-.022.027-.033.04a.7.7,0,0,0-.056.077c-.011.018-.02.036-.029.055s-.018.03-.025.046l-.859,2.107-.086-3.355,13.03-7.141Zm.061,3.255.607-1.49.531.476Z" transform="translate(-1363.46 -190.849)" fill="#324755"/>
</svg>
