<svg xmlns="http://www.w3.org/2000/svg" width="42.261" height="40.258" viewBox="0 0 42.261 40.258">
  <path id="Icon" d="M35.958.466A1.856,1.856,0,0,0,34.65,0C31.512,0,23.814,6.519,21.482,8.559,17.763,7.375,4.826,3.3,3.111,3.3a1.394,1.394,0,0,0-.275.025A5.126,5.126,0,0,0,.134,5.41a.775.775,0,0,0-.105.645.834.834,0,0,0,.43.514l14.969,7.651c-1.38,1.58-4.474,5.139-5.533,6.505-.877,1.132-1.655,2.081-2.083,2.6A17.3,17.3,0,0,0,4.9,22.892a1.89,1.89,0,0,0-.8.141,1.869,1.869,0,0,0-.941,1.26c-.017.055-.4,1.363.033,1.984.189.273.5.434,1.246.8.176.087.424.21.618.315-.12.673-.136,1.131.173,1.477a.9.9,0,0,0,.1.1,1.236,1.236,0,0,0,.915.329,5.425,5.425,0,0,0,.777-.074c.112.181.245.412.339.576.4.695.571.984.864,1.159a1.679,1.679,0,0,0,.892.19c.209,0,2.06-.029,2.594-1.034.1-.186.388-.731-.305-3.461.553-.4,1.571-1.121,2.787-1.937,1.468-.986,5.293-3.864,6.992-5.148L29.4,33.5a.878.878,0,0,0,.552.4.945.945,0,0,0,.693-.1,4.989,4.989,0,0,0,2.242-2.515c.081-.351.2-.881-2.817-9.517-1.17-3.344-2.371-6.639-2.81-7.834.845-.844,3-3.028,4.972-5.332C36.112,4.079,37.227,1.646,35.958.466Z" transform="translate(6.473 0) rotate(11)" fill="#324755"/>
</svg>
