<svg id="Icon" xmlns="http://www.w3.org/2000/svg" width="36.716" height="38.909" viewBox="0 0 36.716 38.909">
  <g id="Group_4275" data-name="Group 4275">
    <path id="Path_2156" data-name="Path 2156" d="M1403.5,800.016a2.8,2.8,0,1,0,.311,3.945A2.8,2.8,0,0,0,1403.5,800.016Z" transform="translate(-1376.718 -788.873)" fill="#324755"/>
    <path id="Path_2190" data-name="Path 2190" d="M1364.428,766.727c-1.689-1.442-5.433-.164-11.128,3.8a74.273,74.273,0,0,0-9.737,8.111h-.008l-5.51.435c-3.928.31-9.014,5.789-9.229,6.022a.747.747,0,0,0,.064,1.073l4.469,3.815a.746.746,0,0,0,.951.015,38.669,38.669,0,0,1,3.311-2.332,4.522,4.522,0,0,1,1.955-.567,7.766,7.766,0,0,0,2.333,4.871l-2.139,2.505a.746.746,0,0,0,1.135.969l2.139-2.505a7.765,7.765,0,0,0,5.178,1.54,4.514,4.514,0,0,1-.254,2.019,38.76,38.76,0,0,1-1.784,3.636.746.746,0,0,0,.164.937l4.469,3.815a.746.746,0,0,0,1.07-.1c.2-.249,4.81-6.131,4.5-10.059-.1-1.219-.205-2.452-.3-3.539-.069-.778-.128-1.452-.167-1.935a74.069,74.069,0,0,0,6.516-10.933C1365.443,772.067,1366.117,768.169,1364.428,766.727Zm-7.576,15.482a4.29,4.29,0,1,1-.477-6.048A4.295,4.295,0,0,1,1356.852,782.209Z" transform="translate(-1328.619 -766.153)" fill="#324755"/>
  </g>
</svg>
