<svg xmlns="http://www.w3.org/2000/svg" width="39.135" height="41.346" viewBox="0 0 39.135 41.346">
  <path id="Icon" d="M10.308.227,10.174.214Q9.888.185,9.609.16L9.39.141C9.216.126,9.045.113,8.875.1L8.749.09H8.742C8.05.042,7.39.012,6.774,0,3.9-.038,2.179.345,1.355,1.21A4.27,4.27,0,0,0,.019,3.5C-.178,5.065,1.164,5.86,2.89,6.639l0,0,.187.084.58.255c.269.118.544.237.822.363s.563.256.85.4c.123.06.256.12.394.181l.066.029c.128.056.263.113.407.171l.111.044.307.119.189.072.181.067c.19.069.385.139.587.21l.068.023.426.147.008,0h0c.5.171,1.034.345,1.591.528,1.373.45,2.862.94,4.332,1.509q.323.125.633.251l.055.022c.879.359,1.672.721,2.389,1.09l.073.038c.16.083.315.166.467.25l.15.084c.245.137.478.276.7.416a12.274,12.274,0,0,1,2.67,2.16,10.622,10.622,0,0,1,1.112,1.5c.007.012.011.025.019.038a20.234,20.234,0,0,1,2,4.643c0,.011.008.021.012.031.6,1.948,1.039,3.982,1.432,5.812l.146.678c.129.6.258,1.181.39,1.729.006.024.011.049.017.073s.008.034.013.052a19.567,19.567,0,0,0,.555,1.925l.007.022h0c.047.13.091.258.135.386l.037.107q.055.162.107.321l.075.231c.076.235.151.469.223.7.615,1.946,1.1,3.483,2.413,3.894,1.139.358,2.3-.4,3.082-.995.847-.652,1.38-2.046,1.676-4.389h0a37.253,37.253,0,0,0,.236-4.622v0a.862.862,0,0,0,.007-.111c-.006-1.994-.119-4.246-.329-6.511a.876.876,0,0,0-.024-.135c-.206-2.186-.5-4.368-.855-6.356a.844.844,0,0,0-.013-.142A34.309,34.309,0,0,0,32.187,8.4a.857.857,0,0,0-.07-.141,6.686,6.686,0,0,0-1.089-2,9.84,9.84,0,0,0-3.319-1.963.874.874,0,0,0-.109-.054c-.806-.329-1.744-.664-2.776-.993L24.4,3.11l-.09-.028A78.429,78.429,0,0,0,11.1.314L11.021.306C10.781.278,10.542.251,10.308.227ZM24.955,5.112c.232.078.46.156.679.234l-6.611,5.948-.076-.044q-.18-.105-.366-.209-.273-.153-.553-.3l-.143-.074c-.651-.336-1.321-.649-2-.939L22,4.226C23.05,4.512,24.046,4.81,24.955,5.112ZM8.063,6.963l-.32-.114-.2-.072-.3-.111-.217-.084-.182-.073c-.109-.044-.214-.088-.316-.132l-.105-.046c-.117-.052-.231-.1-.338-.155C5.895,6.081,5.7,5.991,5.51,5.9l-.172-.079c-.142-.064-.28-.127-.417-.187L4.828,5.6,8.991,1.85c1.345.108,2.8.287,4.3.521L8.155,6.995Zm23.1,3.961c.231.873.453,1.864.658,2.936L25.51,19.535A21.181,21.181,0,0,0,24.118,16.4l6.851-6.164C31.033,10.453,31.1,10.684,31.162,10.923Zm-2.79,19.816c-.012-.037-.025-.073-.037-.111-.042-.133-.083-.273-.124-.417-.013-.044-.025-.09-.037-.135-.029-.106-.059-.212-.087-.323-.017-.064-.033-.13-.049-.2-.025-.1-.05-.2-.075-.3-.016-.065-.032-.131-.047-.2-.026-.112-.053-.226-.08-.342q-.02-.087-.04-.175-.046-.2-.093-.413L27.674,28c-.039-.178-.079-.358-.118-.543l-.005-.022c0-.014-.006-.027-.009-.041l5.382-4.842c.1,1.471.164,2.905.177,4.232l-4.652,4.185Q28.41,30.858,28.372,30.739Z" transform="translate(4.555) rotate(7)" fill="#324755"/>
</svg>
